HIERARCHY
ROOT joint_Root
{
	OFFSET 0.0 0.0 0.0
	CHANNELS 6 Xposition Yposition Zposition Zrotation Xrotation Yrotation 
	JOINT Hips
	{
		OFFSET 4.5925 91.4895 -427.239
		CHANNELS 6 Xposition Yposition Zposition Zrotation Xrotation Yrotation 
		JOINT Spine
		{
			OFFSET 15.7357 0.0 0.0
			CHANNELS 6 Xposition Yposition Zposition Zrotation Xrotation Yrotation 
			JOINT Chest
			{
				OFFSET 8.98455 -0.406207 0.0
				CHANNELS 6 Xposition Yposition Zposition Zrotation Xrotation Yrotation 
				JOINT Neck
				{
					OFFSET 16.3773 0.0 0.0
					CHANNELS 6 Xposition Yposition Zposition Zrotation Xrotation Yrotation 
					JOINT Head
					{
						OFFSET 6.45672 0.0 0.0
						CHANNELS 6 Xposition Yposition Zposition Zrotation Xrotation Yrotation 
						End Site
						{
							OFFSET 0.0 0.0 0.0
						}
					}
				}
				JOINT Shoulder_L
				{
					OFFSET 12.9942 -0.242716 4.98039
					CHANNELS 6 Xposition Yposition Zposition Zrotation Xrotation Yrotation 
					JOINT UpperArm_L
					{
						OFFSET 5.34809 0.0 0.0
						CHANNELS 6 Xposition Yposition Zposition Zrotation Xrotation Yrotation 
						JOINT LowerArm_L
						{
							OFFSET 24.3286 1.87007e-05 0.0
							CHANNELS 6 Xposition Yposition Zposition Zrotation Xrotation Yrotation 
							JOINT Hand_L
							{
								OFFSET 22.2916 0.0 0.0
								CHANNELS 6 Xposition Yposition Zposition Zrotation Xrotation Yrotation 
								End Site
								{
									OFFSET 0.0 0.0 0.0
								}
							}
						}
					}
				}
				JOINT Shoulder_R
				{
					OFFSET 12.9945 -0.242716 -4.98039
					CHANNELS 6 Xposition Yposition Zposition Zrotation Xrotation Yrotation 
					JOINT UpperArm_R
					{
						OFFSET -5.34813 0.0 0.0
						CHANNELS 6 Xposition Yposition Zposition Zrotation Xrotation Yrotation 
						JOINT LowerArm_R
						{
							OFFSET -24.3289 0.000322201 0.0
							CHANNELS 6 Xposition Yposition Zposition Zrotation Xrotation Yrotation 
							JOINT Hand_R
							{
								OFFSET -22.2915 -0.000108084 0.0
								CHANNELS 6 Xposition Yposition Zposition Zrotation Xrotation Yrotation 
								End Site
								{
									OFFSET 0.0 0.0 0.0
								}
							}
						}
					}
				}
			}
		}
		JOINT UpperLeg_L
		{
			OFFSET -2.19248 -6.46944 0.0
			CHANNELS 6 Xposition Yposition Zposition Zrotation Xrotation Yrotation 
			JOINT LowerLeg_L
			{
				OFFSET 39.0811 0.0 -1.23785e-05
				CHANNELS 6 Xposition Yposition Zposition Zrotation Xrotation Yrotation 
				JOINT Foot_L
				{
					OFFSET 40.9854 0.0 -1.26872e-05
					CHANNELS 6 Xposition Yposition Zposition Zrotation Xrotation Yrotation 
					JOINT Toes_L
					{
						OFFSET 11.7543 0.0 0.0
						CHANNELS 6 Xposition Yposition Zposition Zrotation Xrotation Yrotation 
						End Site
						{
							OFFSET 0.0 0.0 0.0
						}
					}
				}
			}
		}
		JOINT UpperLeg_R
		{
			OFFSET -2.19251 6.46944 0.0
			CHANNELS 6 Xposition Yposition Zposition Zrotation Xrotation Yrotation 
			JOINT LowerLeg_R
			{
				OFFSET -39.0811 -0.00228153 -0.0401928
				CHANNELS 6 Xposition Yposition Zposition Zrotation Xrotation Yrotation 
				JOINT Foot_R
				{
					OFFSET -40.9854 0.0 0.0
					CHANNELS 6 Xposition Yposition Zposition Zrotation Xrotation Yrotation 
					JOINT Toes_R
					{
						OFFSET -11.7543 0.0 0.0
						CHANNELS 6 Xposition Yposition Zposition Zrotation Xrotation Yrotation 
						End Site
						{
							OFFSET 0.0 0.0 0.0
						}
					}
				}
			}
		}
	}
}
MOTION
Frames:	4
Frame Time:	0.0333333
0.000000 0.000000 0.000000 0.000000 0.000000 -0.000000 -176.940000 90.209300 185.155000 73.012900 81.603000 15.225700 15.735700 0.000005 -0.000001 113.914000 81.730700 -114.623000 8.984550 -0.406207 -0.000000 7.433050 6.681120 -1.852830 16.377300 -0.000001 -0.000001 -5.065010 -3.405790 0.264464 6.456720 -0.000001 -0.000000 -10.590500 -7.725410 1.542180 12.994200 -0.242716 4.980390 -87.398700 -7.155110 -69.961300 5.348090 -0.000007 -0.000001 -66.109200 24.162000 28.426900 24.328600 0.000019 0.000005 12.706600 -1.459610 -96.445700 22.291600 -0.000001 0.000005 6.673050 5.473570 -5.504350 12.994500 -0.242716 -4.980390 89.393300 4.238850 -81.846300 -5.348130 -0.000001 -0.000004 -53.858300 44.879600 -34.489100 -24.328900 0.000322 -0.000009 -10.708100 3.945260 -109.993000 -22.291500 -0.000108 -0.000004 16.103400 5.536030 -8.061550 -2.192480 -6.469440 -0.000000 -170.268000 -2.980460 -28.502600 39.081100 -0.000007 -0.000012 0.018954 -0.033582 29.440600 40.985400 -0.000006 -0.000013 -0.198468 0.999436 -63.852300 11.754300 -0.000000 0.000003 -0.005903 -0.069959 -19.423900 -2.192510 6.469440 -0.000001 172.924000 18.007600 -176.388000 -39.081100 -0.002282 -0.040193 0.012589 -0.016327 29.628500 -40.985400 0.000008 0.000006 5.603690 16.554500 -65.051100 -11.754300 -0.000006 -0.000006 -0.079886 -0.391625 -32.831500
0.000000 0.000000 0.000000 0.000000 0.000000 -0.000000 -172.354000 88.683000 184.300000 79.944600 81.853900 8.741300 15.735700 0.000005 -0.000001 110.595000 81.616000 -111.688000 8.984550 -0.406207 -0.000000 8.019260 5.870660 -2.598370 16.377300 -0.000001 -0.000001 -4.509380 -3.251810 0.325440 6.456720 -0.000001 -0.000000 -11.075200 -6.795340 0.614954 12.994200 -0.242716 4.980390 -88.795600 -3.406620 -70.517400 5.348090 -0.000007 -0.000001 -63.856800 19.978000 23.144200 24.328600 0.000019 0.000005 13.956200 -1.517350 -96.082000 22.291600 -0.000001 0.000005 8.286230 5.484440 -5.911170 12.994500 -0.242716 -4.980390 89.007200 6.775980 -81.645200 -5.348130 -0.000001 -0.000004 -55.408000 45.928400 -27.337800 -24.328900 0.000322 -0.000009 -11.023900 2.737210 -103.773000 -22.291500 -0.000108 -0.000004 17.148300 5.543750 -8.413900 -2.192480 -6.469440 -0.000000 -172.449000 -9.083440 -30.772900 39.081100 -0.000007 -0.000012 -0.081853 0.127184 32.764800 40.985400 -0.000006 -0.000013 -5.635810 -0.679960 -62.061600 11.754300 -0.000000 0.000003 -0.006266 -0.073242 -19.557900 -2.192510 6.469440 -0.000001 171.018000 14.182700 -174.696000 -39.081100 -0.002282 -0.040193 0.016613 -0.020697 32.757300 -40.985400 0.000008 0.000006 4.932710 13.425600 -66.600500 -11.754300 -0.000006 -0.000006 -0.106677 -0.460828 -35.840300
0.000000 0.000000 0.000000 0.000000 0.000000 -0.000000 -167.220000 87.036600 183.182000 85.736800 82.972200 2.766380 15.735700 0.000005 -0.000001 105.375000 82.251400 -106.749000 8.984550 -0.406207 -0.000000 7.241290 4.100360 -3.004640 16.377300 -0.000001 -0.000001 -3.353550 -3.234230 0.950318 6.456720 -0.000001 -0.000000 -9.854660 -5.464080 0.440960 12.994200 -0.242716 4.980390 -90.667300 1.850810 -70.179500 5.348090 -0.000007 -0.000001 -60.823400 18.962000 16.560900 24.328600 0.000019 0.000005 14.381100 -1.790280 -96.946700 22.291600 -0.000001 0.000005 12.002500 5.520400 -7.350530 12.994500 -0.242716 -4.980390 88.452800 9.689850 -80.884500 -5.348130 -0.000001 -0.000004 -57.187700 46.283800 -17.813800 -24.328900 0.000322 -0.000009 -9.125490 0.646579 -93.997100 -22.291500 -0.000108 -0.000004 16.948000 5.552860 -8.844720 -2.192480 -6.469440 -0.000000 -174.934000 -11.933500 -33.678500 39.081100 -0.000007 -0.000012 -0.053885 0.061467 41.240700 40.985400 -0.000006 -0.000013 -3.771900 1.224240 -58.615700 11.754300 -0.000000 0.000003 -0.003512 -0.046269 -18.458700 -2.192510 6.469440 -0.000001 169.627000 11.464000 -174.063000 -39.081100 -0.002282 -0.040193 0.055234 -0.068557 37.152500 -40.985400 0.000008 0.000006 4.802080 10.036000 -65.929800 -11.754300 -0.000006 -0.000006 -0.176419 -0.604420 -42.315700
0.000000 0.000000 0.000000 0.000000 0.000000 -0.000000 -161.710000 85.827600 182.093000 91.343800 84.513600 -1.754130 15.735700 0.000005 -0.000001 99.686200 82.462700 -101.326000 8.984550 -0.406207 -0.000000 7.137480 2.536370 -3.434260 16.377300 -0.000001 -0.000001 -2.356420 -3.112720 1.442080 6.456720 -0.000001 -0.000000 -8.025060 -4.957890 2.089290 12.994200 -0.242716 4.980390 -92.126300 5.613570 -69.216300 5.348090 -0.000007 -0.000001 -59.640300 21.720000 6.222830 24.328600 0.000019 0.000005 16.600800 -2.546720 -98.475400 22.291600 -0.000001 0.000005 16.123200 5.554750 -8.905310 12.994500 -0.242716 -4.980390 87.802400 11.699900 -79.285100 -5.348130 -0.000001 -0.000004 -59.721200 45.009300 -7.934590 -24.328900 0.000322 -0.000009 -6.318060 -1.273830 -78.604900 -22.291500 -0.000108 -0.000004 18.069000 5.603640 -11.502200 -2.192480 -6.469440 -0.000000 -175.653000 -10.202800 -32.907300 39.081100 -0.000007 -0.000012 -0.242482 0.211110 48.957100 40.985400 -0.000006 -0.000013 -3.072680 2.216130 -66.095200 11.754300 -0.000000 0.000003 -0.000046 -0.000527 -16.598000 -2.192510 6.469440 -0.000001 169.061000 9.929930 -174.655000 -39.081100 -0.002282 -0.040193 0.174402 -0.172686 44.742000 -40.985400 0.000008 0.000006 7.792750 5.932100 -58.892700 -11.754300 -0.000006 -0.000006 -0.334674 -0.832306 -53.582800
